<?xml version="1.0" encoding="iso-8859-1"?>
<!-- Generator: Adobe Illustrator 19.0.0, SVG Export Plug-In . SVG Version: 6.00 Build 0)  -->
<svg version="1.1" id="Layer_1" xmlns="http://www.w3.org/2000/svg" xmlns:xlink="http://www.w3.org/1999/xlink" x="0px" y="0px"
	 viewBox="0 0 512 512" style="enable-background:new 0 0 512 512;" xml:space="preserve">
<g>
	<g>
		<path d="M501.801,56.448H10.199C4.566,56.448,0,61.015,0,66.648V202.41c0,2.806,1.157,5.488,3.196,7.415l48.307,45.623
			C53.879,366.192,144.696,455.551,256,455.551s202.121-89.36,204.497-200.104l48.307-45.623c2.04-1.927,3.196-4.609,3.196-7.415
			V66.648C512,61.015,507.434,56.448,501.801,56.448z M256,435.153c-98.122,0-178.567-77.137-183.876-173.957h367.752
			C434.567,358.016,354.122,435.153,256,435.153z M491.602,198.013L446.3,240.799H65.7l-31.362-29.62H348.89
			c5.633,0,10.199-4.566,10.199-10.199s-4.566-10.199-10.199-10.199H20.398V76.847h471.203V198.013z"/>
	</g>
</g>
<g>
	<g>
		<path d="M430.347,190.781H410.34c-5.633,0-10.199,4.566-10.199,10.199s4.566,10.199,10.199,10.199h20.007
			c5.633,0,10.199-4.566,10.199-10.199S435.98,190.781,430.347,190.781z"/>
	</g>
</g>
<g>
	<g>
		<path d="M256,348.362c-33.515,0-58.788,15.444-58.788,35.923s25.274,35.923,58.788,35.923s58.788-15.444,58.788-35.923
			C314.788,363.805,289.515,348.362,256,348.362z M256,399.809c-23.078,0-38.39-9.344-38.39-15.524S232.922,368.76,256,368.76
			s38.39,9.344,38.39,15.524C294.39,390.464,279.078,399.809,256,399.809z"/>
	</g>
</g>
<g>
</g>
<g>
</g>
<g>
</g>
<g>
</g>
<g>
</g>
<g>
</g>
<g>
</g>
<g>
</g>
<g>
</g>
<g>
</g>
<g>
</g>
<g>
</g>
<g>
</g>
<g>
</g>
<g>
</g>
</svg>
